<svg id="visual" viewBox="0 0 1000 200" width="1000" height="200" xmlns="http://www.w3.org/2000/svg" xmlns:xlink="http://www.w3.org/1999/xlink" version="1.1"><rect x="0" y="0" width="1000" height="200" fill="#001220"></rect><path d="M0 108L15.2 103.5C30.3 99 60.7 90 91 89C121.3 88 151.7 95 182 95.2C212.3 95.3 242.7 88.7 273 87.7C303.3 86.7 333.7 91.3 364 96.7C394.3 102 424.7 108 454.8 108.7C485 109.3 515 104.7 545.2 103.7C575.3 102.7 605.7 105.3 636 104.5C666.3 103.7 696.7 99.3 727 100.2C757.3 101 787.7 107 818 109.8C848.3 112.7 878.7 112.3 909 109.5C939.3 106.7 969.7 101.3 984.8 98.7L1000 96L1000 201L984.8 201C969.7 201 939.3 201 909 201C878.7 201 848.3 201 818 201C787.7 201 757.3 201 727 201C696.7 201 666.3 201 636 201C605.7 201 575.3 201 545.2 201C515 201 485 201 454.8 201C424.7 201 394.3 201 364 201C333.7 201 303.3 201 273 201C242.7 201 212.3 201 182 201C151.7 201 121.3 201 91 201C60.7 201 30.3 201 15.2 201L0 201Z" fill="#fa7268"></path><path d="M0 96L15.2 102C30.3 108 60.7 120 91 123C121.3 126 151.7 120 182 118.8C212.3 117.7 242.7 121.3 273 123.7C303.3 126 333.7 127 364 125.3C394.3 123.7 424.7 119.3 454.8 116.2C485 113 515 111 545.2 108.8C575.3 106.7 605.7 104.3 636 107C666.3 109.7 696.7 117.3 727 120.8C757.3 124.3 787.7 123.7 818 121.7C848.3 119.7 878.7 116.3 909 115.7C939.3 115 969.7 117 984.8 118L1000 119L1000 201L984.8 201C969.7 201 939.3 201 909 201C878.7 201 848.3 201 818 201C787.7 201 757.3 201 727 201C696.7 201 666.3 201 636 201C605.7 201 575.3 201 545.2 201C515 201 485 201 454.8 201C424.7 201 394.3 201 364 201C333.7 201 303.3 201 273 201C242.7 201 212.3 201 182 201C151.7 201 121.3 201 91 201C60.7 201 30.3 201 15.2 201L0 201Z" fill="#f46767"></path><path d="M0 112L15.2 113.3C30.3 114.7 60.7 117.3 91 121.8C121.3 126.3 151.7 132.7 182 134.2C212.3 135.7 242.7 132.3 273 132.8C303.3 133.3 333.7 137.7 364 136C394.3 134.3 424.7 126.7 454.8 126.5C485 126.3 515 133.7 545.2 135.2C575.3 136.7 605.7 132.3 636 132C666.3 131.7 696.7 135.3 727 132.2C757.3 129 787.7 119 818 118.8C848.3 118.7 878.7 128.3 909 130.2C939.3 132 969.7 126 984.8 123L1000 120L1000 201L984.8 201C969.7 201 939.3 201 909 201C878.7 201 848.3 201 818 201C787.7 201 757.3 201 727 201C696.7 201 666.3 201 636 201C605.7 201 575.3 201 545.2 201C515 201 485 201 454.8 201C424.7 201 394.3 201 364 201C333.7 201 303.3 201 273 201C242.7 201 212.3 201 182 201C151.7 201 121.3 201 91 201C60.7 201 30.3 201 15.2 201L0 201Z" fill="#ee5c67"></path><path d="M0 130L15.2 132.8C30.3 135.7 60.7 141.3 91 143.8C121.3 146.3 151.7 145.7 182 144.7C212.3 143.7 242.7 142.3 273 141.3C303.3 140.3 333.7 139.7 364 138.8C394.3 138 424.7 137 454.8 136.2C485 135.3 515 134.7 545.2 132.7C575.3 130.7 605.7 127.3 636 129.3C666.3 131.3 696.7 138.7 727 140C757.3 141.3 787.7 136.7 818 137.2C848.3 137.7 878.7 143.3 909 142.8C939.3 142.3 969.7 135.7 984.8 132.3L1000 129L1000 201L984.8 201C969.7 201 939.3 201 909 201C878.7 201 848.3 201 818 201C787.7 201 757.3 201 727 201C696.7 201 666.3 201 636 201C605.7 201 575.3 201 545.2 201C515 201 485 201 454.8 201C424.7 201 394.3 201 364 201C333.7 201 303.3 201 273 201C242.7 201 212.3 201 182 201C151.7 201 121.3 201 91 201C60.7 201 30.3 201 15.2 201L0 201Z" fill="#e75167"></path><path d="M0 161L15.2 156.7C30.3 152.3 60.7 143.7 91 141.5C121.3 139.3 151.7 143.7 182 147.2C212.3 150.7 242.7 153.3 273 151.5C303.3 149.7 333.7 143.3 364 140C394.3 136.7 424.7 136.3 454.8 139C485 141.7 515 147.3 545.2 149.8C575.3 152.3 605.7 151.7 636 152.3C666.3 153 696.7 155 727 153.2C757.3 151.3 787.7 145.7 818 142.2C848.3 138.7 878.7 137.3 909 137.8C939.3 138.3 969.7 140.7 984.8 141.8L1000 143L1000 201L984.8 201C969.7 201 939.3 201 909 201C878.7 201 848.3 201 818 201C787.7 201 757.3 201 727 201C696.7 201 666.3 201 636 201C605.7 201 575.3 201 545.2 201C515 201 485 201 454.8 201C424.7 201 394.3 201 364 201C333.7 201 303.3 201 273 201C242.7 201 212.3 201 182 201C151.7 201 121.3 201 91 201C60.7 201 30.3 201 15.2 201L0 201Z" fill="#df4667"></path><path d="M0 167L15.2 166.5C30.3 166 60.7 165 91 165.3C121.3 165.7 151.7 167.3 182 166.3C212.3 165.3 242.7 161.7 273 162C303.3 162.3 333.7 166.7 364 167C394.3 167.3 424.7 163.7 454.8 163.5C485 163.3 515 166.7 545.2 166C575.3 165.3 605.7 160.7 636 157.8C666.3 155 696.7 154 727 154.3C757.3 154.7 787.7 156.3 818 156.3C848.3 156.3 878.7 154.7 909 155.7C939.3 156.7 969.7 160.3 984.8 162.2L1000 164L1000 201L984.8 201C969.7 201 939.3 201 909 201C878.7 201 848.3 201 818 201C787.7 201 757.3 201 727 201C696.7 201 666.3 201 636 201C605.7 201 575.3 201 545.2 201C515 201 485 201 454.8 201C424.7 201 394.3 201 364 201C333.7 201 303.3 201 273 201C242.7 201 212.3 201 182 201C151.7 201 121.3 201 91 201C60.7 201 30.3 201 15.2 201L0 201Z" fill="#d73b67"></path><path d="M0 172L15.2 173.5C30.3 175 60.7 178 91 176.8C121.3 175.7 151.7 170.3 182 169.5C212.3 168.7 242.7 172.3 273 174C303.3 175.7 333.7 175.3 364 174.5C394.3 173.7 424.7 172.3 454.8 170.8C485 169.3 515 167.7 545.2 169.3C575.3 171 605.7 176 636 177.7C666.3 179.3 696.7 177.7 727 176.7C757.3 175.7 787.7 175.3 818 175C848.3 174.7 878.7 174.3 909 172.3C939.3 170.3 969.7 166.7 984.8 164.8L1000 163L1000 201L984.8 201C969.7 201 939.3 201 909 201C878.7 201 848.3 201 818 201C787.7 201 757.3 201 727 201C696.7 201 666.3 201 636 201C605.7 201 575.3 201 545.2 201C515 201 485 201 454.8 201C424.7 201 394.3 201 364 201C333.7 201 303.3 201 273 201C242.7 201 212.3 201 182 201C151.7 201 121.3 201 91 201C60.7 201 30.3 201 15.2 201L0 201Z" fill="#cf3068"></path><path d="M0 186L15.2 184.3C30.3 182.7 60.7 179.3 91 178.8C121.3 178.3 151.7 180.7 182 180.8C212.3 181 242.7 179 273 179C303.3 179 333.7 181 364 183C394.3 185 424.7 187 454.8 187C485 187 515 185 545.2 183.3C575.3 181.7 605.7 180.3 636 181.2C666.3 182 696.7 185 727 184.8C757.3 184.7 787.7 181.3 818 180.5C848.3 179.7 878.7 181.3 909 183.3C939.3 185.3 969.7 187.7 984.8 188.8L1000 190L1000 201L984.8 201C969.7 201 939.3 201 909 201C878.7 201 848.3 201 818 201C787.7 201 757.3 201 727 201C696.7 201 666.3 201 636 201C605.7 201 575.3 201 545.2 201C515 201 485 201 454.8 201C424.7 201 394.3 201 364 201C333.7 201 303.3 201 273 201C242.7 201 212.3 201 182 201C151.7 201 121.3 201 91 201C60.7 201 30.3 201 15.2 201L0 201Z" fill="#c62368"></path></svg>