<svg id="visual" viewBox="0 0 1000 200" width="1000" height="200" xmlns="http://www.w3.org/2000/svg" xmlns:xlink="http://www.w3.org/1999/xlink" version="1.1"><rect x="0" y="0" width="1000" height="200" fill="#192655"></rect><path d="M0 149L143 123L286 116L429 133L571 119L714 103L857 128L1000 131L1000 0L857 0L714 0L571 0L429 0L286 0L143 0L0 0Z" fill="#871400"></path><path d="M0 107L143 84L286 95L429 134L571 85L714 127L857 136L1000 129L1000 0L857 0L714 0L571 0L429 0L286 0L143 0L0 0Z" fill="#9a0f1c"></path><path d="M0 97L143 102L286 71L429 63L571 92L714 96L857 100L1000 59L1000 0L857 0L714 0L571 0L429 0L286 0L143 0L0 0Z" fill="#ab0f34"></path><path d="M0 37L143 75L286 67L429 55L571 44L714 63L857 72L1000 68L1000 0L857 0L714 0L571 0L429 0L286 0L143 0L0 0Z" fill="#ba164d"></path><path d="M0 47L143 47L286 27L429 46L571 24L714 44L857 48L1000 42L1000 0L857 0L714 0L571 0L429 0L286 0L143 0L0 0Z" fill="#c62368"></path></svg>