<svg id="visual" viewBox="0 0 1000 200" width="1000" height="200" xmlns="http://www.w3.org/2000/svg" xmlns:xlink="http://www.w3.org/1999/xlink" version="1.1"><path d="M0 37L91 49L182 67L273 69L364 93L455 63L545 47L636 33L727 69L818 77L909 87L1000 73L1000 0L909 0L818 0L727 0L636 0L545 0L455 0L364 0L273 0L182 0L91 0L0 0Z" fill="#192655"></path><path d="M0 59L91 83L182 83L273 105L364 107L455 95L545 79L636 67L727 105L818 109L909 123L1000 87L1000 71L909 85L818 75L727 67L636 31L545 45L455 61L364 91L273 67L182 65L91 47L0 35Z" fill="#054a77"></path><path d="M0 99L91 105L182 137L273 153L364 155L455 131L545 119L636 107L727 129L818 133L909 147L1000 111L1000 85L909 121L818 107L727 103L636 65L545 77L455 93L364 105L273 103L182 81L91 81L0 57Z" fill="#006e92"></path><path d="M0 175L91 171L182 171L273 189L364 185L455 189L545 171L636 179L727 189L818 177L909 183L1000 167L1000 109L909 145L818 131L727 127L636 105L545 117L455 129L364 153L273 151L182 135L91 103L0 97Z" fill="#00929c"></path><path d="M0 201L91 201L182 201L273 201L364 201L455 201L545 201L636 201L727 201L818 201L909 201L1000 201L1000 165L909 181L818 175L727 187L636 177L545 169L455 187L364 183L273 187L182 169L91 169L0 173Z" fill="#04b180"></path></svg>