<svg id="visual" viewBox="0 0 1000 200" width="1000" height="200" xmlns="http://www.w3.org/2000/svg" xmlns:xlink="http://www.w3.org/1999/xlink" version="1.1"><rect x="0" y="0" width="1000" height="200" fill="#001220"></rect><path d="M0 146L33 146L33 93L67 93L67 52L100 52L100 36L133 36L133 168L167 168L167 57L200 57L200 133L233 133L233 150L267 150L267 52L300 52L300 40L333 40L333 78L367 78L367 151L400 151L400 145L433 145L433 58L467 58L467 122L500 122L500 108L533 108L533 70L567 70L567 82L600 82L600 41L633 41L633 33L667 33L667 66L700 66L700 108L733 108L733 34L767 34L767 107L800 107L800 127L833 127L833 124L867 124L867 48L900 48L900 37L933 37L933 34L967 34L967 77L1000 77L1000 141L1000 0L1000 0L967 0L967 0L933 0L933 0L900 0L900 0L867 0L867 0L833 0L833 0L800 0L800 0L767 0L767 0L733 0L733 0L700 0L700 0L667 0L667 0L633 0L633 0L600 0L600 0L567 0L567 0L533 0L533 0L500 0L500 0L467 0L467 0L433 0L433 0L400 0L400 0L367 0L367 0L333 0L333 0L300 0L300 0L267 0L267 0L233 0L233 0L200 0L200 0L167 0L167 0L133 0L133 0L100 0L100 0L67 0L67 0L33 0L33 0L0 0Z" fill="#04B180" stroke-linecap="square" stroke-linejoin="miter"></path></svg>